<svg width="24" height="24" viewBox="0 0 24 24" fill="none" xmlns="http://www.w3.org/2000/svg">
<path d="M10.9229 8C10.4132 7.99987 10 7.5522 10 7C10 6.4478 10.4132 6.00013 10.9229 6L21.0771 6C21.5868 6.00013 22 6.4478 22 7C22 7.5522 21.5868 7.99987 21.0771 8L10.9229 8ZM6.70703 15.707C6.31651 16.0976 5.68349 16.0976 5.29297 15.707L2.29297 12.707C1.90244 12.3165 1.90244 11.6835 2.29297 11.293L5.29297 8.29297C5.68349 7.90244 6.31651 7.90244 6.70703 8.29297C7.09756 8.68349 7.09756 9.31651 6.70703 9.70703L5.41406 11L21 11C21.5523 11 22 11.4477 22 12C22 12.5523 21.5523 13 21 13L5.41406 13L6.70703 14.293C7.09756 14.6835 7.09756 15.3165 6.70703 15.707ZM10.9229 18C10.4132 17.9999 10 17.5522 10 17C10 16.4478 10.4132 16.0001 10.9229 16L21.0771 16C21.5868 16.0001 22 16.4478 22 17C22 17.5522 21.5868 17.9999 21.0771 18L10.9229 18Z" fill="#94A3B8"/>
</svg>
