<svg width="24" height="24" viewBox="0 0 24 24" fill="none" xmlns="http://www.w3.org/2000/svg">
<path d="M13.0771 16C13.5868 16.0001 14 16.4478 14 17C14 17.5522 13.5868 17.9999 13.0771 18H2.92285C2.41315 17.9999 2 17.5522 2 17C2 16.4478 2.41315 16.0001 2.92285 16H13.0771ZM17.293 8.29297C17.6835 7.90244 18.3165 7.90244 18.707 8.29297L21.707 11.293C22.0976 11.6835 22.0976 12.3165 21.707 12.707L18.707 15.707C18.3165 16.0976 17.6835 16.0976 17.293 15.707C16.9024 15.3165 16.9024 14.6835 17.293 14.293L18.5859 13H3C2.44772 13 2 12.5523 2 12C2 11.4477 2.44772 11 3 11H18.5859L17.293 9.70703C16.9024 9.31651 16.9024 8.68349 17.293 8.29297ZM13.0771 6C13.5868 6.00013 14 6.4478 14 7C14 7.5522 13.5868 7.99987 13.0771 8H2.92285C2.41315 7.99987 2 7.5522 2 7C2 6.4478 2.41315 6.00013 2.92285 6H13.0771Z" fill="#94A3B8"/>
</svg>
